<?xml version="1.0" encoding="UTF-8"?>
<svg width="362px" height="63px" viewBox="0 0 362 63" version="1.1" xmlns="http://www.w3.org/2000/svg" xmlns:xlink="http://www.w3.org/1999/xlink">
    <!-- Generator: sketchtool 49.3 (51167) - http://www.bohemiancoding.com/sketch -->
    <title>61681736-36B9-4ED1-B898-CC0523EDB262</title>
    <desc>Created with sketchtool.</desc>
    <defs>
        <polygon id="path-1" points="1.54694939e-16 42.8756569 1.54694939e-16 0.866539216 38.4039937 0.866539216 38.4039937 42.8756569"></polygon>
        <polygon id="path-3" points="55.4012958 52.2076388 55.4012958 1.22568864 0.198572104 1.22568864 0.198572104 52.2076388 55.4012958 52.2076388"></polygon>
    </defs>
    <g id="Symbols" stroke="none" stroke-width="1" fill="none" fill-rule="evenodd">
        <g id="Medium/header" transform="translate(0.000000, -33.000000)">
            <g id="Logo/seal" transform="translate(0.000000, 32.000000)">
                <g id="Page-1">
                    <path d="M295.936785,6.36018627 L295.936785,51.5122451" id="Stroke-1" stroke="#201748" stroke-width="0.5"></path>
                    <g id="Group-30" transform="translate(0.000000, 0.049196)">
                        <g id="Group-4" transform="translate(0.000000, 7.647059)">
                            <mask id="mask-2" fill="white">
                                <use xlink:href="#path-1"></use>
                            </mask>
                            <g id="Clip-3"></g>
                            <path d="M18.4251627,40.0449706 L15.5775993,40.0449706 L15.5775993,3.69212745 C15.4144444,3.69212745 17.9344232,3.69212745 17.9611908,3.69467647 C22.81505,3.70869608 24.4274796,5.57202941 24.4274796,11.7967353 C24.4274796,15.9095784 22.99605,17.4173235 21.229388,18.4178137 C20.2083951,18.9951667 19.1415148,19.5215392 17.3264162,19.8567353 C17.2601345,19.8567353 17.160712,21.9201667 17.3264162,21.9201667 C23.5619937,23.0786961 25.8742049,25.1612451 25.8742049,31.3043824 C25.8742049,37.6246765 23.6027824,40.0449706 18.4251627,40.0449706 M24.690057,20.9158529 L24.690057,20.6303627 C31.9580993,19.0627157 36.1631627,16.0969314 36.1631627,10.5566373 C36.1631627,4.03369608 32.0269303,0.866539216 18.6036134,0.866539216 L0.168380986,0.866539216 C0.0523880282,0.866539216 -0.0610556338,3.3480098 0.0536626761,3.3480098 C1.36272606,3.56595098 2.46147254,3.73291176 3.88015563,3.95340196 L3.88015563,31.2521275 C3.88015563,33.6749706 3.87505704,37.5826176 3.76161338,39.7811471 C2.67688803,40.0041863 1.30919085,40.223402 0.163282394,40.3916373 C0.0472894366,40.3954608 -0.0674288732,42.8756569 0.0472894366,42.8756569 L19.492043,42.8756569 C23.2700993,42.8756569 27.6102754,42.376049 30.188888,41.3691863 C35.7297824,39.2076176 38.4039937,36.5375196 38.4039937,31.0813431 C38.4039937,24.0447745 31.8472049,21.6754608 24.690057,20.9158529" id="Fill-2" fill="#201748" mask="url(#mask-2)"></path>
                        </g>
                        <path d="M55.9550028,21.9317647 C58.1027845,21.9317647 58.886693,23.917451 58.8943408,30.4429412 L51.6275732,31.1502941 C51.8659324,24.2348039 53.4707141,21.9317647 55.9550028,21.9317647 M56.0684465,19.4592157 C47.8597141,19.4592157 40.5840239,25.474902 40.5840239,36.2776471 C40.5840239,44.8805882 45.3881718,51.2493137 55.9881437,51.2493137 C65.4320099,51.2493137 68.5740169,45.4362745 69.3885169,43.6901961 C69.6013831,43.2696078 69.6485451,41.1348039 69.3821437,41.3489216 C67.7416718,42.6196078 64.8890099,44.2968627 61.1810592,44.2968627 C56.0607986,44.2968627 51.8582845,41.8013725 51.6084535,33.7834314 L69.4994113,33.7834314 C70.3547,24.9982353 65.9839324,19.4592157 56.0684465,19.4592157" id="Fill-5" fill="#201748"></path>
                        <path d="M94.8722972,19.860049 C94.2043817,19.5133824 93.526269,19.3005392 92.2439732,19.3005392 C88.8610577,19.3005392 85.8082761,22.909951 84.3500789,27.0406373 L84.1219169,27.0406373 L84.2863465,19.6841667 C84.2863465,19.5707353 83.9447408,19.2380882 83.7803113,19.2941667 C78.8525225,20.2946569 76.6410085,20.6821078 70.5074028,21.8470098 C70.3391493,21.9018137 70.3952338,23.9907353 70.4513183,23.9907353 C71.7170437,24.2685784 72.2192549,24.4304412 73.2236775,24.7745588 C73.2810366,27.2611275 73.3893817,28.7497549 73.3893817,31.1776961 L73.3893817,40.8359314 C73.3893817,43.1937745 73.3371211,45.9123039 73.2810366,47.7093627 C72.2906352,47.877598 71.8725507,47.934951 70.6182972,48.1579902 C70.4513183,48.1579902 70.3378746,50.5234804 70.5583887,50.5234804 L87.7049521,50.5234804 C87.7635859,50.5234804 87.9292901,48.1579902 87.7635859,48.1579902 C86.7132761,47.9884804 85.5533465,47.8304412 84.4558746,47.6660294 L84.4558746,29.6712255 C86.1103676,28.570049 88.0427338,27.8423039 90.5015296,27.8423039 C92.0948394,27.8423039 93.3682127,28.4438725 93.8933676,28.7879902 L94.5995225,28.7879902 C94.8174873,28.7879902 95.0966352,19.9734804 94.8722972,19.860049" id="Fill-7" fill="#201748"></path>
                        <path d="M111.604473,48.1563333 C110.547789,47.988098 110.389733,47.9294706 109.292261,47.7625098 L109.292261,15.2102549 C109.292261,11.447902 109.457965,8.66182353 109.457965,6.56652941 C109.457965,6.34476471 109.115085,6.11790196 108.949381,6.17143137 C106.621874,6.69015686 100.450029,7.77603922 95.3539866,8.72809804 C95.1882824,8.78162745 95.2430923,10.873098 95.2991768,10.873098 C96.5445077,11.1458431 97.0785852,11.3191765 98.063888,11.6581961 C98.1199725,14.1434902 98.2308669,15.6308431 98.2308669,18.0638824 L98.2308669,40.8368235 C98.2308669,43.2048627 98.1773317,45.903 98.1199725,47.7077059 C97.1333951,47.8746667 96.6987401,47.9383922 95.464881,48.1563333 C95.2991768,48.1563333 95.1870077,50.5218235 95.4062472,50.5218235 L111.544564,50.5218235 C111.604473,50.5218235 111.771451,48.1563333 111.604473,48.1563333" id="Fill-9" fill="#201748"></path>
                        <path d="M129.059373,48.1563333 C128.015437,47.988098 128.049852,47.9294706 126.960028,47.7625098 L126.960028,28.3262353 C126.960028,24.5638824 127.121908,21.7816275 127.121908,19.6850588 C127.121908,19.4645686 126.780303,19.2377059 126.615873,19.2937843 C124.288366,19.8086863 118.111423,20.8945686 113.016655,21.8466275 C112.848401,21.8988824 112.904486,23.9878039 112.96057,23.9878039 C114.225021,24.2681961 114.728507,24.4275098 115.73038,24.7741765 C115.786465,27.2594706 115.897359,28.7493725 115.897359,31.1785882 L115.897359,40.8368235 C115.897359,43.1933922 115.842549,45.908098 115.786465,47.7077059 C114.798613,47.8746667 115.000007,47.9332941 113.747028,48.1563333 C113.580049,48.1563333 113.46788,50.5218235 113.688394,50.5218235 L129.000739,50.5218235 C129.059373,50.5218235 129.227627,48.1563333 129.059373,48.1563333" id="Fill-11" fill="#201748"></path>
                        <path d="M121.397082,17.611049 C124.707343,17.611049 127.357336,15.3016373 127.357336,12.0669314 C127.357336,8.78379412 124.707343,6.52791176 121.397082,6.52791176 C118.086822,6.52791176 115.440653,8.78379412 115.440653,12.0669314 C115.440653,15.3016373 118.086822,17.611049 121.397082,17.611049" id="Fill-13" fill="#201748"></path>
                        <path d="M165.809384,48.1563333 C164.760349,47.9345686 164.190581,47.8236863 163.091835,47.655451 L163.091835,28.7659412 C163.091835,21.2718235 159.906489,19.4607451 154.485412,19.4607451 C150.117194,19.4607451 146.415616,21.788 144.311173,24.6365294 L144.086835,24.6365294 L144.199004,19.6850588 C144.199004,19.5703529 143.854849,19.2377059 143.689144,19.2937843 C138.774102,20.2866275 136.540919,20.6817255 130.417511,21.8466275 C130.251806,21.8988824 130.305342,23.9890784 130.361426,23.9890784 C131.628426,24.2681961 132.130637,24.4275098 133.13506,24.7741765 C133.200067,27.2263333 133.302039,28.7493725 133.302039,31.1785882 L133.302039,40.8393725 C133.302039,43.1908431 133.247229,45.9144706 133.191144,47.7077059 C132.200743,47.8746667 132.403412,47.9332941 131.149158,48.1563333 C130.98218,48.1563333 130.870011,50.5218235 131.090525,50.5218235 L147.027447,50.5218235 C147.089905,50.5218235 147.25306,48.1563333 147.084806,48.1563333 C146.039595,47.988098 145.45963,47.9294706 144.367257,47.7625098 L144.367257,27.0542745 C145.399722,26.2895686 146.580046,25.5337843 148.694687,25.5337843 C150.962285,25.5337843 152.024067,26.6489804 152.024067,29.6351569 L152.024067,40.8393725 C152.024067,43.1908431 152.024067,45.1612353 151.914447,47.7077059 C150.926595,47.8746667 150.572243,47.9332941 149.305243,48.1563333 C149.139539,48.2073137 149.02737,50.5218235 149.191799,50.5218235 L165.698489,50.5218235 C165.809384,50.5218235 166.032447,48.2073137 165.809384,48.1563333" id="Fill-15" fill="#201748"></path>
                        <path d="M180.232535,39.106549 C177.875711,39.106549 176.909527,36.9959608 176.909527,30.6374314 C176.909527,24.609 177.875711,22.3467451 180.232535,22.3467451 C182.586809,22.3467451 183.606527,24.4981176 183.606527,30.8528235 C183.656239,36.7257647 182.586809,39.106549 180.232535,39.106549 M197.433908,19.7174314 L189.587175,22.4487059 L189.450788,22.4487059 C186.867077,20.4413529 183.507105,19.4561569 180.28607,19.4561569 C173.956168,19.4561569 166.660084,22.9202745 166.660084,30.6374314 C166.660084,36.0324314 170.211253,39.4544902 174.500443,41.0310588 L174.500443,41.2566471 C172.243042,42.1067451 170.309401,43.9522353 170.309401,47.2583137 C170.309401,51.516451 173.125098,53.3033137 177.706182,53.536549 C181.445999,53.7098824 184.876077,53.7672353 187.122006,53.8819412 C190.563556,54.0552745 191.018605,54.6555686 191.018605,56.459 C191.018605,59.2387059 186.42095,61.2995882 179.531478,61.2995882 C173.64133,61.2995882 171.134098,59.9129216 171.134098,57.2619412 C171.134098,55.4980196 171.773971,54.7320392 172.30295,53.8857647 C172.576999,53.4524314 166.355443,52.8750784 166.064823,53.211549 C165.365042,54.054 164.494457,55.1488039 164.494457,57.2096863 C164.494457,61.4206667 169.271837,63.7249804 179.579915,63.7249804 C191.635535,63.7249804 197.506563,58.4153725 197.506563,52.423902 C197.506563,46.4987059 193.850873,45.1719412 189.341168,44.9425294 C186.98307,44.826549 184.053929,44.7118431 180.019668,44.5397843 C177.341633,44.4225294 176.502915,43.8451765 176.502915,42.5604706 C176.502915,42.2163529 176.562823,41.9257647 176.695387,41.6670392 C177.873161,41.9206667 179.070056,42.0481176 180.232535,42.0481176 C186.534394,42.0481176 193.802436,38.5712549 193.802436,30.8528235 C193.802436,28.6377255 193.203351,26.6584118 192.218049,25.0525294 L197.433908,26.4748824 C197.674816,26.5309608 197.674816,19.6575294 197.433908,19.7174314" id="Fill-17" fill="#201748"></path>
                        <path d="M213.451898,30.4781176 C209.540004,28.6963529 207.407518,28.0068431 207.407518,25.4068431 C207.407518,23.1611569 209.731201,21.941451 211.921046,21.941451 C215.533398,21.941451 217.498905,24.7657647 219.117708,27.9329216 L220.363039,27.9329216 C220.582278,27.9329216 220.745433,21.036549 220.363039,20.8147843 C218.736588,19.9685098 215.767933,19.4587059 212.346778,19.4587059 C205.637032,19.4587059 199.141426,23.0082157 199.141426,30.1556667 C199.141426,35.8093922 202.865947,38.3749804 206.31387,39.8738039 C211.773187,42.2482157 213.283644,43.3417451 213.283644,45.6651765 C213.283644,47.8700784 211.844567,48.8132157 209.08113,48.8132157 C204.070489,48.8132157 201.837306,43.2385098 200.908088,41.636451 L199.607947,41.636451 C199.388708,41.636451 199.21663,49.0706667 199.607947,49.2924314 C202.11518,50.5159608 205.369356,51.2488039 209.244285,51.2488039 C217.40713,51.2488039 222.211278,46.9613529 222.211278,40.5301765 C222.211278,35.6245882 219.117708,33.0577255 213.451898,30.4781176" id="Fill-19" fill="#201748"></path>
                        <path d="M239.730294,48.1563333 C238.673611,47.988098 237.785181,47.9294706 236.691533,47.7625098 L236.691533,15.2102549 C236.691533,11.447902 236.854688,8.66182353 236.854688,6.56652941 C236.854688,6.34476471 236.507984,6.11790196 236.344829,6.17143137 C234.021146,6.69015686 227.846751,7.77603922 222.750709,8.72809804 C222.582456,8.78290196 222.63854,10.873098 222.695899,10.873098 C223.934857,11.1458431 224.465111,11.3191765 225.461885,11.6581961 C225.519244,14.1434902 225.628864,15.6333922 225.628864,18.0638824 L225.628864,40.8368235 C225.628864,43.2048627 225.574054,45.903 225.519244,47.7077059 C224.525019,47.8746667 224.127329,47.9332941 222.864153,48.1563333 C222.695899,48.1563333 222.582456,50.5218235 222.801695,50.5218235 L239.670385,50.5218235 C239.730294,50.5218235 239.898547,48.1563333 239.730294,48.1563333" id="Fill-21" fill="#201748"></path>
                        <path d="M254.905359,45.6308922 C252.38538,41.8991275 249.828437,38.1801078 245.750838,30.2042255 L245.750838,30.0449118 C248.617521,26.9555 250.55881,25.5637353 255.654852,21.2801078 L255.654852,20.125402 C254.05262,20.0145196 249.210232,19.9699118 247.558289,20.1305 C245.030662,24.7799118 243.638746,27.0294216 237.768993,35.3557941 L237.768993,36.3435392 C238.913627,39.5119706 239.766366,41.1560882 241.568718,44.3895196 C243.176049,47.2635392 244.088697,48.6043235 245.409232,50.1401078 C248.83931,50.4141275 254.447761,50.5237353 257.839599,50.5237353 C257.953042,50.5237353 258.066486,48.1620686 258.005303,48.1607941 C256.823704,47.880402 256.153239,47.498049 254.905359,45.6308922" id="Fill-23" fill="#201748"></path>
                        <path d="M271.757096,21.9317647 C273.907427,21.9317647 274.693885,23.917451 274.701533,30.4429412 L267.430942,31.1502941 C267.666751,24.2348039 269.268984,21.9317647 271.757096,21.9317647 M285.184237,41.3489216 C283.543765,42.6196078 280.693653,44.2968627 276.985702,44.2968627 C271.865442,44.2968627 267.657829,41.8013725 267.406723,33.7834314 L285.304054,33.7834314 C286.156794,24.9982353 281.787301,19.4592157 271.873089,19.4592157 C263.657984,19.4592157 256.384843,25.474902 256.384843,36.2776471 C256.384843,44.8805882 261.190265,51.2493137 271.794061,51.2493137 C281.236653,51.2493137 284.377385,45.4362745 285.191885,43.6901961 C285.403477,43.2696078 285.451913,41.1348039 285.184237,41.3489216" id="Fill-25" fill="#201748"></path>
                        <g id="Group-29" transform="translate(305.915493, 0.000000)">
                            <mask id="mask-4" fill="white">
                                <use xlink:href="#path-3"></use>
                            </mask>
                            <g id="Clip-28"></g>
                            <path d="M1.20186549,25.1261961 C1.21588662,23.423451 1.53964718,22.1438431 2.38601338,20.5532549 L2.43572465,21.9195294 L4.88304859,23.3546275 C4.62811901,24.138451 4.50702746,24.9541373 4.48790775,26.0017843 C3.39171056,25.7086471 2.29806268,25.4180588 1.20186549,25.1261961 Z M4.10678803,20.6705098 C4.18199225,20.5188431 4.25974577,20.3697255 4.3374993,20.2231569 C4.39230915,20.111 4.45221761,20.0039412 4.51085141,19.8956078 C5.34447113,18.3636471 6.27496408,17.0878627 7.48205563,15.818451 L8.31185141,17.0126667 L10.9873373,17.0126667 C9.04859789,18.9167843 7.84660493,20.6462941 6.66373169,23.2386471 L3.71292183,21.5065882 C3.84038662,21.2198235 3.97422465,20.9407059 4.10678803,20.6705098 Z M6.86767535,13.1687451 C8.41892183,12.6908039 9.40804859,11.4787451 10.3704077,10.3023725 C11.21295,9.27639216 12.0147035,8.29501961 13.1504148,7.84639216 L13.1504148,10.236098 L15.0776824,10.6554118 C13.8438232,11.2238431 12.9834359,12.2765882 12.1408937,13.3000196 C11.6374077,13.9181569 11.1466683,14.5171765 10.5870979,14.9963922 C10.3359923,15.2105098 10.0695908,15.4016863 9.78406972,15.5571765 C9.61199225,15.6489412 9.43609085,15.7292353 9.2512669,15.7967843 C9.10340775,15.8503137 8.94280211,15.8961961 8.77837254,15.9306078 C8.77837254,15.9306078 7.11750634,13.5319804 6.86767535,13.1687451 Z M14.1535627,5.50384314 C16.0757317,4.99913725 18.1228162,4.99913725 20.0462599,5.50384314 L20.0462599,8.90933333 C19.0813514,8.67482353 18.0960486,8.55629412 17.1030979,8.55629412 C16.6098092,8.55629412 16.1152458,8.58433333 15.6296049,8.64296078 C15.444781,8.66462745 15.2574077,8.69139216 15.0738585,8.72198039 C14.8903092,8.75129412 14.7105838,8.78570588 14.5346824,8.82266667 C14.4033937,8.84943137 14.2797528,8.8787451 14.1535627,8.90933333 L14.1535627,5.50384314 Z M5.50507676,27.3107059 L5.49360493,26.6454118 C5.47066127,25.4970784 5.54841479,24.6597255 5.77147817,23.875902 L7.12515423,24.6699216 L7.3533162,24.1537451 C8.6496331,21.1930588 9.90133732,19.396 12.1498162,17.2803137 L12.6303585,16.8291373 L11.3850275,15.6272745 C11.9496965,15.1212941 12.4353373,14.523549 12.9158796,13.936 C13.953443,12.6691373 14.9310979,11.4723725 16.5537246,11.2608039 L17.3694993,11.1524706 L17.3694993,9.56698039 C18.3930415,9.58737255 19.4191331,9.74796078 20.4057106,10.0423725 L21.0468585,10.236098 L21.0468585,4.75060784 L20.6912317,4.64482353 C18.3586261,3.95021569 15.8411965,3.95021569 13.5060415,4.64482353 L13.1504148,4.75060784 L13.1504148,6.78727451 C11.5736754,7.25501961 10.5718021,8.47854902 9.59669648,9.66766667 C8.56168239,10.9332549 7.58020352,12.1287451 5.96267535,12.3428627 L5.15327394,12.4511961 L5.61852042,13.1241373 C6.04170352,13.7422745 6.47253451,14.3591373 6.8982669,14.976 C5.53056972,16.3907059 4.49045704,17.8092353 3.57016127,19.5298235 L2.21648521,18.8428627 L2.00234437,19.195902 C0.632097887,21.4849216 0.157928873,23.1392353 0.201266901,25.5212941 L0.207640141,25.8998235 L0.572189437,25.9966863 C2.00489366,26.3764902 3.42995,26.7575686 4.85883028,27.1411961 L5.50507676,27.3107059 Z M1.92204155,39.2413922 L2.24835141,40.1870784 C3.99079507,39.5944314 5.94737958,39.5676667 7.7446331,40.1208039 L8.0429007,39.1661961 C7.08691479,38.8705098 6.09778803,38.7175686 5.09846408,38.7175686 C4.00609085,38.7175686 2.93666127,38.8921765 1.92204155,39.2413922 Z M18.9067246,47.0656078 C18.0412387,46.5621765 17.5058866,45.6228627 17.5058866,44.6198235 C17.5058866,44.1431569 17.6231542,43.6766863 17.8500415,43.2662941 L16.0374923,42.2594314 C15.8335486,42.6264902 15.6767669,43.0228627 15.5747951,43.4307059 L15.4715486,43.4307059 C13.8603937,43.4307059 12.4072951,42.4149216 11.8502739,40.9122745 C11.690943,40.4738431 11.6131894,40.0239412 11.6131894,39.5702157 C11.6131894,37.4417843 13.341612,35.711 15.4715486,35.711 L15.4715486,34.7092353 C12.7909641,34.7092353 10.6100415,36.8886471 10.6100415,39.5702157 C10.6100415,40.1411961 10.7081894,40.7083529 10.9083092,41.2563922 C11.6042669,43.1439412 13.4219148,44.4120784 15.4333092,44.4324706 C15.4307599,44.4949216 15.4256613,44.5586471 15.4256613,44.6198235 C15.4256613,44.816098 15.4422317,45.0123725 15.4651754,45.203549 C13.1210979,45.1997255 11.0013585,43.7238431 10.1881331,41.5278627 C10.0071331,41.0282549 9.89368944,40.5133529 9.85545,39.9933529 L9.85035141,39.9933529 L9.85545,39.9895294 C9.80828803,39.3701176 9.67445,38.7647255 9.46285845,38.186098 C9.03330211,37.0301176 8.28253451,36.0156078 7.31762606,35.2623725 C7.52539366,34.5014902 7.11750634,33.6998235 6.36673873,33.4258039 L1.39816127,31.6172745 C1.18784437,31.5420784 0.935464085,31.5981569 0.779957042,31.7778627 C0.579837324,32.0123725 0.60660493,32.3666863 0.837316197,32.5680588 L4.84735845,36.0207059 C4.98502042,36.1341373 5.14562606,36.231 5.32152746,36.2972745 C5.82246408,36.4782549 6.3552669,36.3839412 6.75040775,36.0908039 C7.54578803,36.7293333 8.16399225,37.5705098 8.52344296,38.5327647 C8.70444296,39.0272745 8.81788662,39.5396275 8.8574007,40.066 C8.90456268,40.6815882 9.03330211,41.2882549 9.24744296,41.8719804 C10.2059782,44.4643333 12.708112,46.2053137 15.4715486,46.2053137 L15.6958866,46.2053137 C15.7902106,46.4831569 15.9074782,46.7533529 16.052788,47.0069804 L15.4715486,47.0069804 C13.3365134,47.0069804 11.2996261,46.0880588 9.89368944,44.4872745 C8.68787254,43.0751176 6.94160493,42.2619804 5.09846408,42.2619804 C3.93980915,42.2619804 2.80792183,42.5793333 1.82899225,43.183451 L2.34904859,44.036098 C3.17629507,43.5326667 4.12335845,43.2662941 5.09846408,43.2662941 C6.64843592,43.2662941 8.11683028,43.9519804 9.13527394,45.1449216 C10.734957,46.9636471 13.0458937,48.0112941 15.4715486,48.0112941 L16.7882599,48.0112941 C17.1030979,48.3337451 17.4587246,48.6256078 17.8525908,48.8613922 L18.9067246,47.0656078 Z M27.7935697,20.2792353 C27.4226472,20.2792353 27.1205556,20.5812941 27.1205556,20.9547255 C27.1205556,21.3268824 27.4226472,21.6289412 27.7935697,21.6289412 C28.1657669,21.6289412 28.4716824,21.3268824 28.4716824,20.9547255 C28.4716824,20.5812941 28.1657669,20.2792353 27.7935697,20.2792353 Z M27.7935697,14.1067843 C27.347443,14.8536471 26.5380415,15.0894314 25.6062739,15.0894314 L25.6062739,16.8750196 C26.532943,16.8750196 27.347443,17.0483529 27.7935697,17.7901176 C28.2396965,17.0483529 29.0541965,16.8750196 29.9834148,16.8750196 L29.9834148,15.0894314 C29.0516472,15.0894314 28.2396965,14.8536471 27.7935697,14.1067843 Z M25.5731331,10.9727647 L26.3812599,10.9727647 L26.3812599,10.9702157 L28.9636965,10.9702157 L28.9636965,12.7022745 C28.9496754,12.6997255 28.9280063,12.695902 28.9139852,12.6908039 C28.8591754,12.6767843 28.8043655,12.6640392 28.7495556,12.6538431 C28.067619,12.5327647 27.5080486,12.5353137 26.8503303,12.6525686 C26.7865979,12.6640392 26.7292387,12.6767843 26.6744289,12.6920784 C26.6476613,12.698451 26.6221683,12.703549 26.5877528,12.7111961 C26.5877528,12.7111961 26.5877528,12.7124706 26.5839289,12.7124706 L26.5839289,11.9745294 L25.5731331,11.9745294 C25.175443,11.9745294 24.8491331,12.3008039 24.8491331,12.701 L23.8485345,12.701 C23.8485345,11.7476667 24.6222458,10.9727647 25.5731331,10.9727647 Z M29.2810838,13.8378627 L29.4021754,13.8862941 C30.4218937,14.3068824 31.0553937,15.0741373 31.0553937,15.8872745 C31.0553937,16.4901176 30.7061401,16.9591373 30.424443,17.2382549 C30.4014993,17.2573725 30.3811049,17.2752157 30.3619852,17.2930588 L30.3390415,17.3121765 C29.9668444,17.6537451 29.4710063,17.9099216 28.8986894,18.0590392 C28.8451542,18.0717843 28.795443,18.0845294 28.744457,18.096 L28.7138655,18.1036471 C28.0484993,18.2463922 27.5348162,18.2438431 26.8847458,18.1049216 L26.8465063,18.096 C26.7955204,18.0858039 26.7432599,18.0743333 26.6859007,18.0577647 C26.1212317,17.9099216 25.624119,17.6511961 25.2519218,17.310902 L25.2251542,17.2892353 C25.2060345,17.2726667 25.1856401,17.2573725 25.1792669,17.248451 C24.8848232,16.9604118 24.5342951,16.4901176 24.5342951,15.8872745 C24.5342951,15.0741373 25.1703444,14.3068824 26.1913373,13.8862941 L26.2461472,13.8595294 C26.2627176,13.8544314 26.2780134,13.8480588 26.2945838,13.8429608 C26.4513655,13.7856078 26.6221683,13.7333529 26.8069923,13.6887451 C26.8414077,13.6823725 26.8783725,13.673451 26.912788,13.6645294 C26.9433796,13.6568824 26.9790697,13.6479608 27.0224077,13.6403137 C27.5730556,13.5421765 28.0089852,13.540902 28.5749289,13.6415882 C28.6080697,13.6466863 28.6399359,13.6556078 28.6756261,13.6645294 C28.7087669,13.673451 28.744457,13.6823725 28.7724993,13.6861961 C28.9687951,13.7333529 29.1408725,13.7856078 29.2810838,13.8378627 Z M30.6679007,20.5188431 L28.1351754,23.6579608 L27.4621613,23.6579608 L24.9281613,20.5188431 C25.6598092,20.311098 26.2435979,19.7541373 26.485781,19.0391373 C26.532943,19.0493333 26.576281,19.0633529 26.6272669,19.073549 L26.6693303,19.0837451 C27.0695697,19.1691373 27.4366683,19.2099216 27.7935697,19.2099216 C28.1555697,19.2099216 28.5226683,19.1691373 28.9280063,19.0811961 L28.9687951,19.0722745 C29.0185063,19.0620784 29.0656683,19.0493333 29.1128303,19.0391373 C29.356288,19.7541373 29.9400768,20.3136471 30.6679007,20.5188431 Z M31.7207599,20.8068824 C32.0113796,20.5366863 32.4638796,20.5417843 32.7430275,20.820902 C32.9890345,21.0694314 33.02345,21.4492353 32.8449993,21.7321765 L30.9725415,21.7321765 L31.7207599,20.8068824 Z M31.187957,25.9903137 L30.3530627,26.9997255 L28.8438796,28.8388431 L28.0918373,29.7539412 L25.7923725,32.5527647 L22.7905768,32.5527647 L30.333943,23.686 L33.0782599,23.686 L31.187957,25.9903137 Z M31.3562106,32.658549 L30.3530627,32.658549 L30.3530627,28.5788431 L31.3562106,27.3616863 L31.3562106,32.658549 Z M29.0937106,32.658549 L28.0918373,32.658549 L28.0918373,31.3343333 L29.0937106,30.1133529 L29.0937106,32.658549 Z M22.8530345,20.823451 C23.1360063,20.5430588 23.585957,20.5379608 23.8753021,20.8068824 L24.6222458,21.7321765 L22.7548866,21.7321765 C22.5751613,21.4492353 22.6095768,21.0694314 22.8530345,20.823451 Z M20.5433725,13.0833529 C20.5433725,13.6887451 20.7817317,14.2597255 21.2087387,14.6841373 C21.4012106,14.8867843 21.6395697,15.0244314 21.866457,15.1467843 C22.0500063,15.2474706 22.0818725,15.2793333 22.0818725,15.5023725 L22.0818725,16.3282549 C22.0818725,16.8265882 22.3559218,17.1108039 22.8339148,17.1108039 L23.8408866,17.1108039 C24.0002176,17.4141373 24.2118092,17.703451 24.4858585,17.9736471 C24.5177246,18.0029608 24.5521401,18.033549 24.5891049,18.0615882 C24.8644289,18.3113922 25.1894641,18.5267843 25.5425415,18.6975686 C25.378112,19.2226667 24.8848232,19.6050196 24.3061331,19.6050196 L23.3845627,19.6075686 C22.9358866,19.6050196 22.4859359,19.7745294 22.1443303,20.1148235 C21.7058514,20.5545294 21.5579923,21.1701176 21.685457,21.7321765 L20.0844993,21.7321765 L20.0844993,26.3140392 L20.2310838,26.4580588 C20.5981824,26.8302157 20.8008514,27.3196275 20.8008514,27.8370784 C20.8008514,28.3583529 20.5981824,28.8452157 20.2310838,29.2148235 L20.0844993,29.3613922 L20.0844993,32.4418824 C20.0844993,33.6322745 21.051957,34.603451 22.2424782,34.603451 L26.0473021,34.603451 L27.8012176,36.3571765 L29.5474852,34.603451 L33.3535838,34.603451 C34.5441049,34.603451 35.5153866,33.6322745 35.5153866,32.4418824 L35.5153866,29.3613922 L35.3662528,29.2148235 C34.9978796,28.8452157 34.7939359,28.3583529 34.7939359,27.8370784 C34.7939359,27.3196275 34.9978796,26.8302157 35.3700768,26.4580588 L35.5153866,26.3140392 L35.5153866,21.7321765 L33.9131542,21.7321765 C34.0431683,21.1701176 33.8902106,20.5532549 33.4517317,20.113549 C33.11395,19.7745294 32.6690979,19.6062941 32.2229711,19.6062941 L31.2899289,19.6050196 C30.7099641,19.6050196 30.2217739,19.2213922 30.0522458,18.6962941 C30.4078725,18.5229608 30.7316331,18.3101176 31.0031331,18.0615882 C31.0388232,18.031 31.0745134,18.0016863 31.1140275,17.9621765 C31.7322317,17.3567843 32.0572669,16.6405098 32.0572669,15.8872745 C32.0572669,14.713451 31.2631613,13.6377647 29.9668444,13.0400196 L29.9668444,9.06992157 L28.9636965,9.06992157 L28.9636965,9.81296078 C28.8872176,9.80021569 28.795443,9.78492157 28.6972951,9.76707843 C28.3544148,9.69952941 27.8840697,9.60776471 27.4226472,9.516 C27.4175486,9.516 27.4175486,9.516 27.4137246,9.51472549 L27.4137246,9.11962745 C28.1186049,9.14129412 28.451288,8.89021569 28.8043655,8.33580392 L30.3262951,5.58668627 C30.4792528,5.34835294 30.4167951,5.02717647 30.2026542,4.8487451 C29.9400768,4.65884314 29.6073937,4.70472549 29.4187458,4.94688235 C29.4187458,4.94688235 29.2734359,5.13805882 29.0516472,5.41972549 C28.8273092,5.68992157 28.5328655,6.05570588 28.2282246,6.42531373 C27.9490768,6.75541176 27.6724782,7.09315686 27.4290204,7.35060784 L27.4290204,7.02943137 C27.4417669,6.95678431 27.4290204,6.88413725 27.4290204,6.81021569 C27.4290204,6.38070588 27.2696894,5.98815686 27.003288,5.68992157 C27.0415275,5.66315686 27.0810415,5.63894118 27.1167317,5.60452941 L27.1167317,5.60070588 C27.253119,5.47962745 27.3359711,5.29737255 27.3359711,5.09982353 C27.3359711,4.73403922 27.0389782,4.43198039 26.6769782,4.43198039 C26.300957,4.43198039 26.0090627,4.73403922 26.0090627,5.09982353 L24.8491331,5.09982353 C24.6566613,5.09982353 24.4310486,5.25276471 24.3443725,5.42864706 L24.2079852,5.72433333 C24.1366049,5.90276471 23.9224641,6.05315686 23.749112,6.05315686 L23.4317246,6.05315686 L22.6567387,6.05315686 L22.6567387,6.91854902 C22.6567387,7.11354902 22.8020486,7.32766667 22.9830486,7.3964902 L24.4922317,7.97511765 C24.5291965,8.01335294 24.5674359,8.04521569 24.60695,8.07962745 L21.2087387,11.4774706 C20.7817317,11.9057059 20.5433725,12.4766863 20.5433725,13.0833529 Z M1.94753451,41.1263922 L2.33757676,42.0516863 C3.20688662,41.6808039 4.13483028,41.490902 5.09846408,41.490902 C6.12455563,41.490902 7.11750634,41.7075686 8.0429007,42.1332549 L8.45971056,41.2207059 C7.40430211,40.7363922 6.27368944,40.4878627 5.09846408,40.4878627 C4.0022669,40.4878627 2.93921056,40.7045294 1.94753451,41.1263922 Z M51.1119782,26.0017843 C51.097957,24.9541373 50.9717669,24.138451 50.7206613,23.3546275 L53.1679852,21.9195294 L53.2151472,20.5532549 C54.0640627,22.1438431 54.3903725,23.423451 54.4005697,25.1261961 C53.3043725,25.4180588 52.2081754,25.7086471 51.1119782,26.0017843 Z M49.9138092,22.6638431 L49.4804289,22.9200196 L48.9348796,23.2386471 C47.753281,20.6462941 46.555112,18.9167843 44.6176472,17.0126667 L47.2905838,17.0126667 L48.1216542,15.818451 C49.3274711,17.0878627 50.2579641,18.3636471 51.0903092,19.8956078 C51.1527669,20.0039412 51.2063021,20.111 51.2649359,20.2231569 C51.3426894,20.3697255 51.4178937,20.5188431 51.4918232,20.6705098 C51.6256613,20.9407059 51.7582246,21.2198235 51.8882387,21.5065882 L50.3497387,22.4102157 L49.9138092,22.6638431 Z M43.4615415,13.3000196 C42.6202739,12.2765882 41.758612,11.2238431 40.5234782,10.6554118 L42.4520204,10.236098 L42.4520204,7.84639216 C43.5877317,8.29501961 44.3907599,9.27639216 45.2269289,10.3023725 C46.1918373,11.4787451 47.1860627,12.6908039 48.7347599,13.1687451 C48.4862035,13.5319804 46.8215134,15.9306078 46.8215134,15.9306078 C46.6570838,15.8961961 46.5003021,15.8503137 46.3473444,15.7967843 C46.1637951,15.7292353 45.9878937,15.6489412 45.8183655,15.5571765 C45.5328444,15.4016863 45.266443,15.2105098 45.0153373,14.9963922 C44.4570415,14.5171765 43.9675768,13.9181569 43.4615415,13.3000196 Z M38.5031613,8.55629412 C37.5063866,8.55629412 36.5159852,8.67482353 35.5536261,8.90933333 L35.5536261,5.50384314 C37.4745204,4.99913725 39.5267035,4.99913725 41.4488725,5.50384314 L41.4488725,8.90933333 C41.323957,8.8787451 41.1952176,8.84943137 41.0703021,8.82266667 C40.8905768,8.78570588 40.7095768,8.75129412 40.5260275,8.72198039 C40.3412035,8.69139216 40.1576542,8.66462745 39.9741049,8.64296078 C39.4833655,8.58433333 38.9951754,8.55629412 38.5031613,8.55629412 Z M53.5975415,19.195902 L53.38595,18.8428627 L52.0322739,19.5298235 C51.1081542,17.8092353 50.0705908,16.3907059 48.7003444,14.976 C49.1311754,14.3591373 49.5581824,13.7422745 49.9839148,13.1241373 L50.446612,12.4511961 L49.6372106,12.3428627 C48.0184077,12.1287451 47.0407528,10.9332549 46.0019148,9.66766667 C45.0319077,8.47854902 44.0300345,7.25501961 42.4520204,6.78727451 L42.4520204,4.75060784 L42.0912951,4.64482353 C39.7625134,3.95021569 37.2412599,3.95021569 34.9112035,4.64482353 L34.5517528,4.75060784 L34.5517528,10.236098 L35.1967246,10.0423725 C36.1794782,9.74796078 37.2093937,9.58737255 38.2316613,9.56698039 L38.2316613,11.1524706 L39.0448866,11.2608039 C40.6662387,11.4723725 41.6489923,12.6691373 42.6827317,13.936 C43.1645486,14.523549 43.6540134,15.1212941 44.2174077,15.6272745 L42.9682528,16.8291373 L43.4513444,17.2803137 C45.6972739,19.396 46.9540768,21.1930588 48.2503937,24.1537451 L48.477281,24.6699216 L49.8284077,23.875902 C50.0501965,24.6597255 50.1304993,25.4970784 50.1101049,26.6454118 L50.0973585,27.3107059 L50.7410556,27.1411961 C52.1724852,26.7575686 53.5975415,26.3764902 55.0289711,25.9966863 L55.3909711,25.8998235 L55.3998937,25.5212941 C55.4432317,23.1392353 54.9741613,21.4849216 53.5975415,19.195902 Z M47.1376261,41.2207059 L47.5569852,42.1332549 C48.4811049,41.7075686 49.4715063,41.490902 50.5014218,41.490902 C51.4650556,41.490902 52.3917246,41.6808039 53.2610345,42.0516863 L53.6523514,41.1263922 C52.6581261,40.7045294 51.597619,40.4878627 50.5014218,40.4878627 C49.3274711,40.4878627 48.1955838,40.7363922 47.1376261,41.2207059 Z M37.7702387,50.1333529 L32.5645768,49.1774706 C32.38995,49.1456078 32.2025768,49.1405098 32.0177528,49.1774706 C31.4543585,49.2781569 31.0197035,49.6770784 30.8476261,50.1830588 L30.7099641,50.1830588 C30.0242035,50.1830588 29.3907035,50.0313922 28.795443,49.7790392 C29.6022951,49.2042353 30.333943,48.5236471 31.0273514,47.8812941 C32.9189289,46.1199216 34.5517528,44.6019804 36.8448444,45.5948235 L37.2412599,44.6746275 C34.3478092,43.4230588 32.3121965,45.3131569 30.3415908,47.145902 C30.2791331,47.2032549 30.2166754,47.2631569 30.1554923,47.3217843 C28.8948655,46.3773725 28.3034289,44.6427647 28.3034289,41.8783529 L27.300281,41.8783529 C27.300281,45.7719804 26.05495,46.891 25.4482176,47.3256078 C25.3870345,47.2669804 25.3207528,47.2083529 25.2570204,47.145902 C23.2864148,45.3131569 21.2520768,43.4230588 18.3586261,44.6746275 L18.7537669,45.5948235 C21.0468585,44.6019804 22.680957,46.1199216 24.5725345,47.8812941 C25.265943,48.5236471 25.9975908,49.2042353 26.8031683,49.7790392 C26.2079077,50.0313922 25.5731331,50.1830588 24.8848232,50.1830588 L24.7560838,50.1830588 C24.5126261,49.4782549 23.7886261,49.038549 23.0378585,49.1774706 L17.8347458,50.1333529 C17.6155063,50.1766863 17.4268585,50.3474706 17.3822458,50.5819804 C17.3274359,50.8878627 17.5339289,51.1822745 17.8372951,51.2370784 L23.0378585,52.1827647 C23.2137599,52.2146275 23.4011331,52.2146275 23.5885063,52.1827647 C24.1493514,52.0820784 24.5750838,51.6857059 24.7509852,51.1848235 L24.8848232,51.1848235 C25.9708232,51.1848235 26.9293585,50.8763922 27.7973937,50.406098 C28.6705275,50.8763922 29.6303373,51.1848235 30.7099641,51.1848235 L30.8527246,51.1848235 C31.0936331,51.8819804 31.8150838,52.3191373 32.5645768,52.1827647 L37.7664148,51.2370784 C37.9894782,51.1937451 38.1730275,51.0204118 38.2150908,50.7846275 C38.2749993,50.4800196 38.0723303,50.1881569 37.7702387,50.1333529 Z M22.7548866,5.02972549 L23.7427387,4.86658824 L23.6981261,4.59894118 C23.6879289,4.52756863 23.6675345,4.43070588 23.6624359,4.36443137 C23.7261683,4.34276471 23.8243162,4.31982353 23.8956965,4.30580392 C24.1417035,4.24717647 24.4246754,4.18217647 24.6388162,3.96805882 C24.8542317,3.75139216 24.9230627,3.45443137 24.9778725,3.21482353 C24.990619,3.14854902 25.0148373,3.05805882 25.0326824,2.99433333 C25.1015134,2.99943137 25.1945627,3.01472549 25.2608444,3.02619608 C25.5030275,3.06698039 25.8063937,3.11668627 26.0931894,2.99815686 C26.3685134,2.88090196 26.532943,2.64639216 26.6820768,2.44119608 C26.7241401,2.38129412 26.77895,2.301 26.8235627,2.25001961 C26.8809218,2.28060784 26.95995,2.32903922 27.0147599,2.36472549 C27.2263514,2.496 27.4889289,2.66041176 27.7973937,2.66041176 C28.1020345,2.66041176 28.3658866,2.49727451 28.5774782,2.36727451 C28.632288,2.33031373 28.7138655,2.28060784 28.7686754,2.25001961 C28.8158373,2.301 28.8706472,2.38129412 28.9139852,2.44119608 C29.0618444,2.64639216 29.2262739,2.88090196 29.5092458,3.00070588 C29.790943,3.11541176 30.0930345,3.06570588 30.333943,3.02619608 C30.4014993,3.01345098 30.4945486,2.99815686 30.5621049,2.99305882 C30.5812246,3.0555098 30.6003444,3.14982353 30.6169148,3.21864706 C30.6717246,3.45698039 30.7431049,3.75266667 30.9572458,3.96805882 C31.1726613,4.18217647 31.4658303,4.251 31.7054641,4.30580392 C31.7704711,4.32109804 31.8660697,4.34276471 31.9285275,4.36315686 C31.9247035,4.42815686 31.9081331,4.52119608 31.8966613,4.5887451 C31.8584218,4.83217647 31.8061613,5.1355098 31.9247035,5.41845098 C32.0419711,5.69629412 32.277781,5.8632549 32.4829993,6.00982353 C32.5429077,6.05188235 32.6206613,6.10796078 32.6716472,6.15129412 C32.6448796,6.20864706 32.5938937,6.28639216 32.5594782,6.3437451 C32.4256401,6.55403922 32.2612106,6.81531373 32.2612106,7.12629412 C32.2612106,7.43727451 32.4256401,7.69854902 32.5594782,7.90756863 C32.5938937,7.96619608 32.6448796,8.04394118 32.6716472,8.10129412 C32.6206613,8.14462745 32.5429077,8.19943137 32.4880979,8.24021569 C32.277781,8.39060784 32.0419711,8.55756863 31.9247035,8.83668627 C31.8061613,9.11962745 31.8584218,9.42041176 31.9017599,9.66256863 C31.9132317,9.73011765 31.9285275,9.82315686 31.9310768,9.88943137 C31.8698937,9.90982353 31.7755697,9.9314902 31.7105627,9.94678431 C31.4658303,10.0015882 31.1688373,10.0704118 30.9623444,10.2832549 C30.7431049,10.4973725 30.6717246,10.7930588 30.6169148,11.0301176 L30.6003444,11.1053137 L31.57545,11.338549 L31.5958444,11.2569804 C31.6136894,11.1728627 31.6417317,11.0505098 31.66595,10.9969804 C31.7207599,10.9727647 31.84695,10.943451 31.9310768,10.9230588 C32.2178725,10.8580588 32.5734993,10.7764902 32.7901894,10.4578627 C32.9954077,10.1430588 32.9380486,9.78364706 32.885788,9.49560784 C32.8730415,9.40894118 32.8526472,9.28276471 32.8564711,9.22286275 C32.8947106,9.1782549 32.9954077,9.10815686 33.066788,9.05717647 C33.3064218,8.88511765 33.6072387,8.67227451 33.6811683,8.29247059 C33.7525486,7.92541176 33.5613514,7.62080392 33.4083937,7.37609804 C33.359957,7.30345098 33.2860275,7.18364706 33.2669077,7.12629412 C33.2860275,7.06894118 33.359957,6.94913725 33.4083937,6.87521569 C33.5613514,6.63178431 33.7525486,6.32717647 33.6811683,5.95756863 C33.6072387,5.57903922 33.29495,5.356 33.0642387,5.19286275 C32.9928585,5.14443137 32.8947106,5.07305882 32.8526472,5.02972549 C32.8526472,4.96982353 32.8730415,4.84109804 32.885788,4.75443137 C32.9354993,4.46766667 32.9954077,4.1082549 32.7812669,3.78707843 C32.5645768,3.47609804 32.2140486,3.3932549 31.9285275,3.3282549 C31.84695,3.30913725 31.7233092,3.28109804 31.6684993,3.25560784 C31.6417317,3.20080392 31.6136894,3.07717647 31.5958444,2.99305882 C31.5295627,2.70629412 31.4479852,2.35070588 31.1267739,2.13531373 C30.8106613,1.93011765 30.4563092,1.9887451 30.1669641,2.03717647 C30.0790134,2.05247059 29.9515486,2.07286275 29.9005627,2.07286275 L29.8967387,2.07286275 C29.8546754,2.03335294 29.7781965,1.93011765 29.7284852,1.86001961 C29.558957,1.61913725 29.3448162,1.31962745 28.9687951,1.24060784 C28.5991472,1.1705098 28.291957,1.36168627 28.04595,1.51717647 C27.9656472,1.56433333 27.8534782,1.63570588 27.7973937,1.65482353 C27.7387599,1.63570588 27.6214923,1.56178431 27.5513866,1.51590196 C27.3053796,1.36168627 26.9981894,1.16923529 26.6221683,1.24315686 C26.2512458,1.31962745 26.0358303,1.61913725 25.8637528,1.86001961 C25.8140415,1.93139216 25.7350134,2.03972549 25.7082458,2.07031373 C25.649612,2.07541176 25.5144993,2.05247059 25.4252739,2.03845098 C25.1397528,1.99001961 24.7828514,1.93011765 24.4578162,2.14168627 C24.1442528,2.3532549 24.0664993,2.70756863 24.0002176,2.99305882 C23.9798232,3.081 23.9505063,3.21354902 23.9339359,3.25433333 C23.8791261,3.27854902 23.7529359,3.30913725 23.6675345,3.3282549 C23.3769148,3.39452941 23.021288,3.47864706 22.8096965,3.79727451 C22.5981049,4.11080392 22.6618373,4.4714902 22.7077246,4.76207843 L22.7548866,5.02972549 Z M53.7237317,31.9078627 L49.2344218,33.4258039 C49.0444993,33.4869804 48.8622246,33.5940392 48.7003444,33.7342353 C48.2542176,34.1382549 48.0974359,34.7436471 48.2465697,35.2878627 C47.2982317,36.0398235 46.5640345,37.0415882 46.1370275,38.1886471 C45.9254359,38.7647255 45.7903232,39.3701176 45.7444359,39.9895294 L46.2415486,40.0277647 L45.7444359,39.9933529 C45.7061965,40.5133529 45.5914782,41.0282549 45.4130275,41.5227647 C44.5985275,43.7238431 42.4800627,45.1997255 40.1334359,45.203549 C40.1576542,45.0123725 40.1691261,44.816098 40.1691261,44.6198235 C40.1691261,44.5586471 40.1691261,44.4949216 40.1653021,44.4324706 C42.1779711,44.4120784 43.9943444,43.1439412 44.6915768,41.2563922 C44.8916965,40.7083529 44.9885697,40.1411961 44.9885697,39.5702157 C44.9885697,36.8886471 42.8089218,34.7092353 40.125788,34.7092353 L40.125788,35.711 C42.2557246,35.711 43.9866965,37.4417843 43.9866965,39.5702157 C43.9866965,40.0239412 43.908943,40.4738431 43.7483373,40.9122745 C43.1913162,42.4149216 41.7394923,43.4307059 40.125788,43.4307059 L40.0238162,43.4307059 C39.923119,43.0228627 39.7663373,42.6264902 39.5636683,42.2594314 L37.7498444,43.2662941 C37.9767317,43.6766863 38.0939993,44.1431569 38.0939993,44.6198235 C38.0939993,45.6228627 37.5573725,46.5621765 36.6931613,47.0656078 L37.7434711,48.8613922 C38.1398866,48.6256078 38.4980627,48.3337451 38.8116261,48.0112941 L40.125788,48.0112941 C42.5539923,48.0112941 44.8649289,46.9636471 46.4684359,45.1372745 C47.4830556,43.9519804 48.95145,43.2662941 50.5014218,43.2662941 C51.4752528,43.2662941 52.4248655,43.5326667 53.2495627,44.036098 L53.7708937,43.183451 C52.7919641,42.5793333 51.6600768,42.2619804 50.5014218,42.2619804 C48.6570063,42.2619804 46.9120134,43.0751176 45.7138444,44.483451 C44.3002599,46.0880588 42.2633725,47.0069804 40.125788,47.0069804 L39.5470979,47.0069804 C39.6911331,46.7495294 39.8096754,46.4831569 39.9065486,46.2053137 L40.125788,46.2053137 C42.8904993,46.2053137 45.3913585,44.4643333 46.3562669,41.8719804 C46.5665838,41.2882549 46.6953232,40.6815882 46.7437599,40.066 C46.7832739,39.5396275 46.8967176,39.0272745 47.076443,38.5327647 C47.4282458,37.5819804 48.0388021,36.7497255 48.817612,36.1137451 C49.3899289,36.5381569 50.1993303,36.5126667 50.7474289,36.0207059 L54.2807528,32.8611961 C54.4451824,32.7133529 54.5140134,32.4813922 54.4400838,32.260902 C54.338112,31.9652157 54.0207246,31.8071765 53.7237317,31.9078627 Z M50.5014218,38.7175686 C49.5033725,38.7175686 48.5129711,38.8705098 47.5569852,39.1661961 L47.8552528,40.1208039 C48.7118162,39.8544314 49.6053444,39.7180588 50.5014218,39.7180588 C51.4841754,39.7180588 52.4439852,39.8799216 53.3477106,40.1870784 L53.6714711,39.2413922 C52.6632246,38.8921765 51.5937951,38.7175686 50.5014218,38.7175686 Z M27.7973937,39.4019804 C28.2600908,40.0162941 28.5303162,40.9186471 28.5303162,41.8783529 L29.5321894,41.8783529 C29.5321894,40.4062941 29.0070345,39.0655098 28.1300768,38.2918824 L27.8012176,37.9961961 L27.4685345,38.2918824 C26.5877528,39.0655098 26.0638725,40.4062941 26.0638725,41.8783529 L27.0657458,41.8783529 C27.0657458,40.9186471 27.3410697,40.0162941 27.7973937,39.4019804 Z M37.0730063,37.0415882 C37.6478725,37.0415882 38.5643444,37.4099216 39.4068866,37.980902 C40.780957,38.9176667 41.284443,39.8875686 41.1862951,40.0787451 C41.1862951,40.0787451 41.125112,40.1297255 40.9135204,40.1297255 C40.3335556,40.1348235 39.4170838,39.7613922 38.5758162,39.1942353 C37.1163444,38.2013922 36.7148303,37.2569804 36.7900345,37.0912941 C36.7976824,37.0849216 36.8767106,37.0415882 37.0730063,37.0415882 Z M34.4841965,42.4123725 C34.9774852,42.4123725 35.5421542,42.341 36.1833021,42.1727647 C36.6969852,42.0389412 37.1673303,41.8554118 37.6160063,41.6808039 C38.5299289,41.3201176 39.311288,40.9670784 40.4865134,41.0970784 L40.4865134,41.0919804 C40.6356472,41.1149216 40.780957,41.1314902 40.9135204,41.1314902 C41.5508444,41.1314902 41.8682317,40.8638431 42.0173655,40.6420784 C42.4877106,39.9487451 42.0441331,38.5633529 39.9690063,37.1511961 C38.9429148,36.4553137 37.8594641,36.0398235 37.0730063,36.0398235 C36.4356824,36.0398235 36.1182951,36.3049216 35.9615134,36.5330588 C35.7371754,36.8618824 35.7422739,37.2646275 35.9016049,37.6954118 L35.8990556,37.6915882 C36.4573514,39.1980588 35.9755345,40.4929608 34.9315979,41.0690392 C33.9335486,41.620902 33.0005063,41.2563922 32.4281894,40.3017843 L32.3823021,40.2074706 C32.2892528,40.0111961 32.2446401,39.7919804 32.252288,39.5727647 L32.2573866,39.5702157 C32.2612106,39.4414902 32.2918021,39.3114902 32.3504359,39.1827647 C32.4536824,38.961 32.6448796,38.7800196 32.8832387,38.6946275 C33.1024782,38.6130588 33.338288,38.6181569 33.544781,38.7137451 C33.7308796,38.7991373 33.8698162,38.961 33.9360979,39.1521765 C33.9794359,39.2605098 34.0062035,39.4363922 33.9169782,39.6173725 L34.8181542,40.0583529 C35.0055275,39.6721765 35.0297458,39.2324706 34.8844359,38.8195294 C34.7276542,38.3772745 34.3936965,38.0089412 33.971788,37.8101176 C33.5218373,37.598549 33.0094289,37.5794314 32.5352599,37.7553137 C32.140119,37.8993333 31.803612,38.1695294 31.5792739,38.5161961 C31.39445,38.2918824 31.2542387,38.0395294 31.1650134,37.7706078 C30.7928162,36.6783529 31.0299007,36.0946275 31.0439218,36.0665882 L30.1338232,35.643451 C30.0930345,35.7390392 29.7080908,36.6108039 30.2141261,38.0943333 C30.4129711,38.6780588 30.7724218,39.1980588 31.2542387,39.6173725 C31.2504148,39.9691373 31.325619,40.323451 31.4824007,40.6446275 C31.9017599,41.5112941 32.7544993,42.4123725 34.4841965,42.4123725 Z M12.708112,31.3916863 C13.5697739,31.4694314 14.4543796,31.1087451 14.9910063,30.3504118 C15.082781,30.2229608 15.151612,30.0891373 15.2140697,29.9527647 C15.2395627,29.9043333 15.2574077,29.8546275 15.2778021,29.8061961 C15.28545,29.7845294 15.2969218,29.7654118 15.3045697,29.7437451 C15.6410768,28.8707059 15.6028373,27.8842353 15.1758303,27.0392353 C14.7717669,26.2477647 14.087281,25.6589412 13.2409148,25.3823725 C12.3996472,25.1045294 11.4946472,25.1746275 10.7081894,25.576098 C10.1843092,25.8399216 9.75730211,26.2311961 9.44756268,26.6976667 C9.41952042,24.1703137 10.915957,21.8583529 13.2192458,20.8489412 C12.7833162,21.5690392 12.708112,22.4905098 13.1236472,23.2947255 C13.5430063,24.1167843 14.3651542,24.6023725 15.2306401,24.6482549 C15.6997106,23.9192353 15.7902106,22.973549 15.3593796,22.1425686 C14.9476683,21.3396275 14.1726824,20.8757059 13.3365134,20.8005098 C13.4448585,20.7546275 13.5544782,20.7087451 13.6679218,20.6705098 C15.3236894,20.0944314 16.4045908,18.4732549 16.3077176,16.7208039 L16.3077176,16.7004118 C16.7525697,17.4166863 17.5466754,17.901 18.4478514,17.8920784 C19.3757951,17.8844314 20.1788232,17.3733529 20.6096542,16.6213922 C20.1673514,15.8758039 19.3694218,15.366 18.4300063,15.3749216 C17.5288303,15.3800196 16.7525697,15.8681569 16.3128162,16.5857059 C16.3841965,14.8039412 17.8525908,13.3777647 19.6498444,13.3777647 L19.6498444,12.376 C17.9201472,12.376 16.4198866,13.3943333 15.7239289,14.8663922 C15.4970415,14.5031569 15.2140697,14.1781569 14.8750134,13.8990392 C14.7832387,13.8251176 14.6850908,13.7473725 14.5754711,13.676 L14.0248232,14.5108039 C14.0987528,14.5592353 14.1701331,14.6178627 14.242788,14.6752157 C14.5576261,14.9352157 14.811281,15.2474706 14.9910063,15.6030588 C15.1758303,15.9650196 15.2803514,16.3524706 15.3045697,16.7539412 C15.3899711,18.0692353 14.5805697,19.2914902 13.3390627,19.723549 C10.2582387,20.7992353 8.24939366,23.8287451 8.45206268,27.0927647 C8.50177394,27.8421765 8.66110493,28.5699216 8.92750634,29.2645294 C8.26086549,28.7496275 7.35714014,28.5686471 6.50822465,28.888549 C5.63509085,29.2148235 5.06659789,29.9706078 4.92128803,30.8296275 C5.59047817,31.3751176 6.52224577,31.5688431 7.39155563,31.2451176 C8.24047113,30.9264902 8.80641479,30.1961961 8.96702042,29.3652157 C9.04859789,29.5627647 9.13527394,29.7577647 9.22832324,29.9502157 L11.7572246,34.9475686 L12.6533021,34.4976667 C12.6533021,34.4976667 10.3793303,29.9693333 9.95997113,29.1217843 C9.53806268,28.2742353 10.191957,26.9563922 11.1581401,26.4708039 C11.7113373,26.1904118 12.3410134,26.1419804 12.9311754,26.3344314 C13.5200627,26.5294314 14.0006049,26.938549 14.2797528,27.4904118 C14.3485838,27.6255098 14.3970204,27.7657059 14.4390838,27.908451 C13.8527458,28.0346275 13.3084711,28.3647255 12.9362739,28.8987451 C12.3958232,29.6570784 12.3524852,30.6002157 12.708112,31.3916863 Z M14.6850908,40.1297255 C14.4747739,40.1297255 14.4110415,40.0787451 14.4110415,40.0787451 C14.3141683,39.8875686 14.8202035,38.9176667 16.1929993,37.980902 C17.0342669,37.4099216 17.9520134,37.0415882 18.5268796,37.0415882 C18.7231754,37.0415882 18.8009289,37.0849216 18.8085768,37.0912941 C18.8825063,37.2569804 18.4848162,38.2013922 17.0227951,39.1942353 C16.1815275,39.7613922 15.2663303,40.1348235 14.6850908,40.1297255 Z M17.9826049,41.6808039 C18.4363796,41.8554118 18.9041754,42.0389412 19.4165838,42.1727647 C20.0615556,42.341 20.6211261,42.4123725 21.1156894,42.4123725 C22.8453866,42.4123725 23.6981261,41.5112941 24.1174852,40.6446275 C24.2742669,40.323451 24.3481965,39.9691373 24.3443725,39.6173725 C24.8261894,39.1980588 25.1856401,38.6780588 25.3870345,38.0943333 C25.8905204,36.6108039 25.5068514,35.7390392 25.4635134,35.643451 L24.5559641,36.0665882 C24.5674359,36.0946275 24.8057951,36.6783529 24.4361472,37.7706078 C24.3443725,38.0395294 24.2041613,38.2918824 24.0180627,38.5161961 C23.7975486,38.1695294 23.4597669,37.8993333 23.0646261,37.7553137 C22.590457,37.5794314 22.0780486,37.598549 21.6306472,37.8101176 C21.2036401,38.0089412 20.8722317,38.3772745 20.71545,38.8195294 C20.5701401,39.2324706 20.5943585,39.6721765 20.7817317,40.0583529 L21.6829077,39.6173725 C21.5924077,39.4363922 21.6229993,39.2605098 21.663788,39.1521765 C21.7287951,38.961 21.8753796,38.7991373 22.0538303,38.7137451 C22.2615979,38.6181569 22.4974077,38.6130588 22.7166472,38.6946275 C22.9550063,38.7800196 23.1500275,38.961 23.2481754,39.1827647 C23.3068092,39.3114902 23.3386754,39.4414902 23.3463232,39.5702157 L23.3463232,39.5727647 C23.3577951,39.7919804 23.3119077,40.0111961 23.2175838,40.2074706 L23.1691472,40.3017843 C22.5981049,41.2563922 21.667612,41.620902 20.668288,41.0690392 C19.6218021,40.4929608 19.1412599,39.1980588 19.7021049,37.6915882 L19.698281,37.6954118 C19.857612,37.2646275 19.8627106,36.8618824 19.6383725,36.5330588 C19.4854148,36.3049216 19.1693021,36.0398235 18.5268796,36.0398235 C17.7391472,36.0398235 16.6556965,36.4553137 15.6334289,37.1511961 C13.5544782,38.5633529 13.1121754,39.9487451 13.5825204,40.6420784 C13.7342035,40.8638431 14.0464923,41.1314902 14.6850908,41.1314902 C14.8202035,41.1314902 14.9642387,41.1149216 15.1133725,41.0919804 L15.1133725,41.0970784 C16.2885979,40.9670784 17.069957,41.3201176 17.9826049,41.6808039 Z M19.2661754,28.233451 L18.8124007,27.3425686 C17.3172387,28.1021765 16.3892951,29.6150196 16.3892951,31.291 C16.3892951,33.7304118 18.3777458,35.711 20.8174218,35.711 L20.8174218,34.7092353 C18.930943,34.7092353 17.3911683,33.1747255 17.3911683,31.288451 C17.3911683,29.993549 18.1087951,28.823549 19.2661754,28.233451 Z M22.7434148,19.0353137 L23.1041401,18.098549 C21.3897387,17.446 20.53445,18.1240392 19.7798585,18.7205098 C19.2049923,19.1755098 18.6632669,19.6050196 17.6499218,19.6050196 L17.1489852,19.6050196 L17.1489852,26.6556078 L18.1508585,26.6556078 L18.1508585,20.5774706 C19.2075415,20.4500196 19.8627106,19.9325686 20.4018866,19.5056078 C21.1016683,18.9511961 21.5656401,18.5854118 22.7434148,19.0353137 Z M26.1569218,44.8313922 C25.4443937,44.1380588 25.0530768,43.2382549 25.0530768,42.2976667 L24.0512035,42.2976667 C24.0512035,43.5122745 24.5521401,44.6644314 25.4596894,45.5527647 L26.1569218,44.8313922 Z M31.5525063,42.2976667 L30.5493585,42.2976667 C30.5493585,43.2344314 30.1554923,44.1355098 29.4429641,44.8313922 L30.1389218,45.5527647 C31.0515697,44.6644314 31.5525063,43.5071765 31.5525063,42.2976667 Z M38.4483514,26.6556078 L38.4483514,19.6050196 L37.9461401,19.6050196 C36.9315204,19.6050196 36.3910697,19.1755098 35.8162035,18.7205098 C35.0641613,18.1227647 34.2075979,17.446 32.4970204,18.098549 L32.8526472,19.0353137 C34.0316965,18.5854118 34.4918444,18.9511961 35.1941754,19.5056078 C35.7346261,19.9312941 36.3872458,20.4500196 37.4452035,20.5774706 L37.4452035,26.6556078 L38.4483514,26.6556078 Z M34.7824641,34.7092353 L34.7824641,35.711 C37.2221401,35.711 39.2067669,33.7304118 39.2067669,31.291 C39.2067669,29.6150196 38.2788232,28.1021765 36.7862106,27.3425686 L36.3298866,28.233451 C37.4885415,28.823549 38.203619,29.993549 38.203619,31.291 C38.203619,33.1747255 36.668943,34.7092353 34.7824641,34.7092353 Z M41.3507246,14.6790392 C41.4310275,14.6178627 41.5011331,14.5592353 41.5750627,14.5108039 L41.0218655,13.676 C40.9135204,13.7473725 40.8153725,13.8251176 40.7210486,13.9015882 C40.4087599,14.1590392 40.1423585,14.4547255 39.9282176,14.7848235 C39.3520768,13.3216863 38.1398866,12.1618824 36.5593232,11.6775686 C35.7613937,11.3831569 34.8461965,11.4838431 34.1247458,12.056098 C33.3969218,12.633451 33.0871824,13.5358039 33.2120979,14.3922745 C34.0265979,14.7070784 34.9698373,14.5987451 35.691288,14.0264902 C36.1246683,13.6836471 36.4076401,13.226098 36.5402035,12.7315882 C38.1539077,13.3420784 39.2297106,14.8472745 39.2845204,16.5806078 C38.8447669,15.8656078 38.0723303,15.3800196 37.1711542,15.3749216 C36.2304641,15.366 35.4312599,15.8758039 34.988957,16.6213922 C35.4210627,17.3733529 36.2228162,17.8844314 37.1507599,17.8920784 C38.0506613,17.901 38.8422176,17.4192353 39.289619,16.7042353 L39.289619,16.7208039 L39.2921683,16.7208039 C39.1940204,18.4732549 40.2749218,20.0944314 41.9319641,20.6705098 C42.0415838,20.7087451 42.1461049,20.7546275 42.2557246,20.7979608 C41.4272035,20.8757059 40.650943,21.3396275 40.2430556,22.1387451 C39.8134993,22.9697255 39.9027246,23.9154118 40.3717951,24.6431569 C41.2385556,24.598549 42.0607035,24.1129608 42.4800627,23.2896275 C42.8943232,22.4892353 42.819119,21.5715882 42.3895627,20.8527647 C44.6864782,21.863451 46.1803655,24.1728627 46.1535979,26.6963922 C45.8425838,26.2311961 45.4168514,25.8399216 44.8942458,25.576098 C44.1001401,25.1746275 43.2002387,25.1058039 42.3538725,25.3823725 C41.5126049,25.6589412 40.8268444,26.2477647 40.4240556,27.0392353 C39.9549852,27.973451 39.9498866,29.081 40.4164077,30.0190392 C40.4763162,30.1413922 40.5413232,30.2611961 40.6190768,30.375902 C41.1569782,31.1329608 42.0415838,31.4936471 42.9019711,31.415902 C43.2588725,30.6244314 43.2155345,29.6825686 42.6750838,28.9229608 C42.2990627,28.3838431 41.7484148,28.0524706 41.1569782,27.9288431 C41.1952176,27.7797255 41.2462035,27.6318824 41.3214077,27.4904118 C41.5967317,26.938549 42.0798232,26.5294314 42.6661613,26.3344314 C43.2588725,26.1419804 43.8885486,26.1904118 44.4404711,26.4708039 C45.3888092,26.9461961 45.9917176,28.2793333 45.6705063,29.0644314 C45.6105979,29.2097255 45.5443162,29.3550196 45.4729359,29.4977647 L42.9453092,34.4976667 L43.8413866,34.9475686 L46.3728373,29.9502157 C46.4658866,29.7590392 46.5500134,29.5653137 46.6303162,29.3690392 C46.7972951,30.186 47.3619641,30.903549 48.1955838,31.2183529 C49.0648937,31.5420784 50.0004852,31.3470784 50.67095,30.8015882 C50.5243655,29.9425686 49.9520486,29.1867843 49.0814641,28.8605098 C48.2414711,28.5444314 47.3530415,28.7164902 46.68895,29.2173725 C46.9477035,28.5367843 47.0993866,27.8243333 47.1452739,27.0927647 C47.3504923,23.8287451 45.3416472,20.7992353 42.2608232,19.723549 C41.0180415,19.2914902 40.2086401,18.0692353 40.2902176,16.7539412 C40.3169852,16.3524706 40.4240556,15.9650196 40.6076049,15.6030588 C40.7886049,15.2474706 41.0435345,14.9352157 41.3507246,14.6790392 Z" id="Fill-27" fill="#201748" mask="url(#mask-4)"></path>
                        </g>
                    </g>
                </g>
            </g>
        </g>
    </g>
</svg>